<svg xmlns="http://www.w3.org/2000/svg" width="37" height="35.341" viewBox="0 0 37 35.341">
  <g id="Grupo_6030" data-name="Grupo 6030" transform="translate(-376 -576.659)">
    <path id="Icon_awesome-angle-down" data-name="Icon awesome-angle-down" d="M16.066,33.157.788,17.879a2.685,2.685,0,0,1,0-3.808l2.539-2.539a2.685,2.685,0,0,1,3.808,0L17.965,22.362,28.794,11.532a2.685,2.685,0,0,1,3.808,0l2.539,2.539a2.685,2.685,0,0,1,0,3.808L19.863,33.157a2.671,2.671,0,0,1-3.8,0Z" transform="translate(377.004 565.919)" fill="#fff"/>
    <path id="Trazado_70320" data-name="Trazado 70320" d="M0,0H30" transform="translate(379.5 608.5)" fill="#fff" stroke="#fff" stroke-linecap="round" stroke-width="7"/>
  </g>
</svg>
